<?xml version="1.0" encoding="utf-8"?>
<!-- Generator: Adobe Illustrator 25.0.0, SVG Export Plug-In . SVG Version: 6.00 Build 0)  -->
<svg version="1.1" id="Layer_1" xmlns="http://www.w3.org/2000/svg" xmlns:xlink="http://www.w3.org/1999/xlink" x="0px" y="0px"
	 viewBox="0 0 32 25.7" style="enable-background:new 0 0 32 25.7;" xml:space="preserve">
<g>
	<rect x="4.8" y="15.7" width="1.2" height="0.9"/>
	<rect x="6.2" y="15.7" width="1.5" height="0.9"/>
	<rect x="7.9" y="15.7" width="1.4" height="0.9"/>
	<path d="M6,14.4h0.2v1.1h1.5v-1.1h0.2v1.1h1.4v-0.6c0-0.3-0.2-0.5-0.5-0.5H5.2c-0.3,0-0.5,0.2-0.5,0.5v0.6H6V14.4z"/>
	<path d="M9.3,17.4v-0.6H7.9v1H7.7v-1H6.2v1H6v-1H4.8v0.6c0,0.3,0.2,0.5,0.5,0.5h3.6C9.1,17.8,9.3,17.6,9.3,17.4z"/>
	<path d="M7.5,21.3H13c0.3,0,0.5-0.2,0.5-0.5c0-0.3-0.2-0.5-0.5-0.5c0,0,0,0,0,0H7.5c-0.3,0-0.5,0.3-0.5,0.5
		C7,21.1,7.2,21.3,7.5,21.3z"/>
	<path d="M10.1,22.4C10.1,22.4,10.1,22.4,10.1,22.4H7.6c-0.3,0-0.5,0.2-0.5,0.5s0.2,0.5,0.5,0.5c0,0,0,0,0,0h2.5
		c0.3,0,0.5-0.2,0.5-0.5C10.7,22.6,10.4,22.4,10.1,22.4z"/>
	<path d="M15.5,22.4h-2.5c-0.3,0-0.5,0.3-0.5,0.5c0,0.3,0.2,0.5,0.5,0.5h2.5c0.3,0,0.5-0.3,0.5-0.5C16,22.6,15.8,22.4,15.5,22.4z"/>
	<path d="M25,20.2C25,20.2,25,20.2,25,20.2h-9.3c-0.3,0-0.5,0.2-0.5,0.5c0,0.3,0.2,0.5,0.5,0.5c0,0,0,0,0,0H25
		c0.3,0,0.5-0.2,0.5-0.5S25.3,20.3,25,20.2z"/>
	<path d="M31.9,14.9c-0.2-0.8-0.5-1.6-0.6-2.4c-0.3-1-0.6-2-0.6-3.2c0-0.4-0.3-0.8-0.4-1.2c-0.1-0.2-0.2-0.4-0.3-0.7
		c-0.5-1.9-1-3.7-1.5-5.6c-0.4-1.5-1.6-2.1-3-1.7C17.5,2.2,9.7,4.3,1.9,6.4C0.4,6.8-0.3,8,0.1,9.5c0.3,1,0.5,1.9,0.8,2.9
		c0.2,0.8,0.5,1.5,0.5,2.4c0,2.8,0,5.5,0,8.3c0,0.4,0.1,0.9,0.3,1.3c0.5,0.9,1.3,1.3,2.3,1.3c4,0,8,0,12,0c4,0,8.1,0,12.1,0
		c1.6,0,2.6-1,2.6-2.6c0-1.7,0-3.3,0-5c0-0.1,0.1-0.3,0.2-0.4C31.8,17,32.2,16.1,31.9,14.9z M28.4,5.8c0.1,0.5,0.3,0.9,0.4,1.4h-5.2
		l0-0.1L28.4,5.8z M1.4,9c0,0.1-0.1,0.2-0.2,0.4c-0.4-1-0.1-1.8,0.8-2c1.1-0.3,2.2-0.6,3.3-0.9c6.7-1.8,13.4-3.6,20.2-5.4
		c1.1-0.3,1.8,0.1,2,1.2c-0.9,0.2-1.7,0.5-2.6,0.7C19.8,4.4,14.7,5.7,9.7,7.1C9.5,7.1,9.2,7.1,9,7.1c-1.9,0-3.7,0-5.6,0
		C2.5,7.2,1.6,8,1.4,9z M29.7,23.2c0,0.9-0.5,1.5-1.5,1.5c-8.1,0-16.2,0-24.3,0c-1,0-1.5-0.5-1.5-1.5c0-4.5,0-9,0-13.6
		c0-0.9,0.5-1.4,1.4-1.4c4.1,0,8.2,0,12.2,0c4,0,8.1,0,12.1,0c1,0,1.5,0.5,1.5,1.5C29.7,14.2,29.7,18.7,29.7,23.2z M30.7,16.6
		L30.7,16.6v-2.2C30.9,15.1,31.3,15.8,30.7,16.6z"/>
	<path d="M25.8,9.2c-0.4,0-0.7,0.3-1.1,0.3c-0.4,0-0.7-0.3-1.1-0.3c-1-0.1-2.1,0.5-2.5,1.4c-0.5,1-0.3,2.1,0.5,2.9
		c0.7,0.8,1.9,1,2.8,0.5c0.2-0.1,0.3-0.1,0.5,0c1.7,0.8,3.6-0.5,3.6-2.3C28.5,10.3,27.3,9.1,25.8,9.2z M24.1,13.5
		c-0.7,0.4-1.7,0.1-2.2-0.5h0c-0.5-0.7-0.5-1.7,0-2.4c0.5-0.7,1.4-0.9,2.2-0.5C23.2,11.2,23.3,12.3,24.1,13.5z"/>
</g>
</svg>
