<?xml version="1.0" encoding="utf-8"?>
<!-- Generator: Adobe Illustrator 25.0.0, SVG Export Plug-In . SVG Version: 6.00 Build 0)  -->
<svg version="1.1" id="Layer_1" xmlns="http://www.w3.org/2000/svg" xmlns:xlink="http://www.w3.org/1999/xlink" x="0px" y="0px"
	 viewBox="0 0 26 32" style="enable-background:new 0 0 26 32;" xml:space="preserve">
<style type="text/css">
	.st0{fill:#001C64;}
	.st1{fill:#0070E0;}
	.st2{fill:#003087;}
</style>
<path class="st0" d="M10.2,6.4c-0.5,0-0.8,0.3-0.9,0.8l-1.5,9.6l-1.4,8.8v0v0l1.4-8.8C7.8,16.3,8.2,16,8.7,16h4.4
	c4.5,0,8.3-3.3,8.9-7.7c0.1-0.3,0.1-0.7,0.1-1l0,0c-1.2-0.6-2.6-0.9-3.9-0.9L10.2,6.4z"/>
<path class="st1" d="M22.1,7.3c0,0.3,0,0.7-0.1,1c-0.7,4.4-4.5,7.7-8.9,7.7H8.7c-0.5,0-0.8,0.3-0.9,0.8l-1.4,8.8l-0.9,5.5
	c-0.1,0.4,0.2,0.8,0.6,0.9c0,0,0,0,0,0c0,0,0.1,0,0.1,0H11c0.5,0,0.8-0.3,0.9-0.8l1.3-8c0.1-0.4,0.5-0.8,0.9-0.8H17
	c4.5,0,8.3-3.3,8.9-7.7C26.4,11.6,24.8,8.7,22.1,7.3L22.1,7.3z"/>
<path class="st2" d="M4.7,0C4.2,0,3.9,0.3,3.8,0.8L0,24.7c-0.1,0.4,0.2,0.8,0.6,0.9c0,0,0,0,0,0c0,0,0.1,0,0.1,0h5.6l1.4-8.8
	l1.5-9.6c0.1-0.4,0.5-0.8,0.9-0.8h8c1.4,0,2.7,0.3,3.9,0.9c0.1-4-3.2-7.3-7.8-7.3H4.7z"/>
</svg>
